<svg xmlns="http://www.w3.org/2000/svg" xmlns:xlink="http://www.w3.org/1999/xlink" width="240" height="240" viewBox="0 0 240 240"><defs><linearGradient id="linear-gradient" x1="0.5" x2="0.5" y2="1" gradientUnits="objectBoundingBox"><stop offset="0" stop-color="#fdfdfd"></stop><stop offset="1" stop-color="#151515"></stop></linearGradient></defs><path id="s_01" d="M120,239.99c-64.17.269-118.156-53.783-118.288-118.247A1.732,1.732,0,0,1,0,120C.047,54.3,54.762-.837,120,.01,184.17-.256,238.155,53.8,238.29,118.259A1.731,1.731,0,0,1,240,120c-.043,65.2-53.931,120-118.512,120C120.992,240,120.5,240,120,239.99Zm44.855-10.92c42.864-17.606,72.44-62.447,71.7-109.07a1.729,1.729,0,0,1,1.7-1.741C236.812,34.969,151.77-21.458,75.144,10.932,32.28,28.538,2.7,73.379,3.443,120a1.731,1.731,0,0,1-1.7,1.743C3.188,205.033,88.23,261.46,164.856,229.071Zm-86.052-8.9C39.948,204.224,13.067,163.9,12.976,121.716A1.633,1.633,0,0,1,11.265,120C11.106,42.589,90.278-10.171,161.2,19.834c38.854,15.943,65.735,56.269,65.826,98.452A1.632,1.632,0,0,1,228.735,120c.13,62.349-51.212,108.707-108.248,108.71A106.6,106.6,0,0,1,78.8,220.169Zm41.2,6.744c41.922.21,82.054-27,97.47-66.25A107.4,107.4,0,0,0,225.292,120,1.66,1.66,0,0,1,227,118.286c-.818-57.855-49.362-105.9-107-105.2-41.92-.21-82.052,26.994-97.47,66.25A107.373,107.373,0,0,0,14.708,120,1.659,1.659,0,0,1,13,121.716C13.816,179.572,62.36,227.619,120,226.913ZM83.113,209.686C48.4,195.417,24.376,159.4,24.244,121.713A1.63,1.63,0,0,1,22.533,120c.218-69.347,70.83-116.6,134.354-89.685,34.715,14.27,58.737,50.282,58.871,87.972A1.63,1.63,0,0,1,217.467,120c-.174,55.837-46,97.351-97,97.357A95.369,95.369,0,0,1,83.113,209.686ZM120,215.564c37.459.165,73.307-24.159,87.062-59.245A95.908,95.908,0,0,0,214.026,120a1.647,1.647,0,0,1,1.708-1.712C214.874,66.631,171.49,23.774,120,24.437,82.54,24.271,46.692,48.6,32.94,83.68A95.906,95.906,0,0,0,25.974,120a1.648,1.648,0,0,1-1.707,1.712C25.126,173.371,68.513,216.228,120,215.564ZM87.424,199.2c-30.573-12.591-51.736-44.291-51.913-77.487A1.636,1.636,0,0,1,33.8,120c.137-61.2,62.749-103.071,118.777-79.2,30.573,12.594,51.736,44.292,51.915,77.489A1.635,1.635,0,0,1,206.2,120c-.111,49.269-40.711,86.008-85.767,86.011A83.911,83.911,0,0,1,87.424,199.2ZM120,204.217c33,.12,64.56-21.326,76.654-52.238a84.4,84.4,0,0,0,6.1-31.978,1.65,1.65,0,0,1,1.706-1.714c-.9-45.461-39.127-83.121-84.464-82.5C87,35.664,55.439,57.11,43.345,88.023A84.42,84.42,0,0,0,37.241,120a1.65,1.65,0,0,1-1.7,1.715C36.437,167.177,74.664,204.836,120,204.217Zm-28.264-15.5c-26.431-10.917-44.735-38.3-44.958-67A1.638,1.638,0,0,1,45.066,120c.115-53.149,54.554-89.5,103.2-68.721,26.431,10.917,44.735,38.3,44.958,67A1.64,1.64,0,0,1,194.937,120c-.1,42.766-35.364,74.652-74.48,74.656A72.84,72.84,0,0,1,91.737,188.72ZM120,192.871c28.535.075,55.816-18.492,66.245-45.236A72.931,72.931,0,0,0,191.493,120a1.651,1.651,0,0,1,1.7-1.717C192.3,79.1,159.1,46.5,120,47.131c-28.537-.075-55.818,18.492-66.246,45.234A72.932,72.932,0,0,0,48.507,120a1.651,1.651,0,0,1-1.7,1.717C47.7,160.9,80.9,193.5,120,192.871ZM58.048,121.727A1.65,1.65,0,0,1,56.331,120C56.3,94.728,72.524,70.574,95.883,61.363c40.2-16.76,85.578,13.449,86.069,56.913A1.648,1.648,0,0,1,183.669,120c.035,25.274-16.193,49.427-39.55,58.639a60.438,60.438,0,0,1-23.322,4.7C88.177,183.34,58.446,156.865,58.048,121.727ZM120,181.523c32.713.3,61.1-28.673,60.225-61.522a1.657,1.657,0,0,1,1.711-1.725c-.7-32.681-29.424-60.669-61.936-59.8C87.287,58.183,58.9,87.152,59.775,120a1.656,1.656,0,0,1-1.711,1.724C58.765,154.408,87.488,182.4,120,181.523Z" fill="url(#linear-gradient)"></path></svg>